<svg xmlns="http://www.w3.org/2000/svg" width="84" height="70" fill="none"><path fill="#000" d="M5.25 12.25V1.75h-3.5V0h10.5v1.75h-3.5v10.5h-3.5Zm8.75 0V0h12.25v1.75H17.5v3.5h7V7h-7v3.5h8.75v1.75H14Zm14 0V0h3.5v1.75h1.75V3.5H35V1.75h1.75V0h3.5v12.25h-3.5v-7H35v3.5h-1.75v-3.5H31.5v7H28Zm14 0V0h3.5v5.25h5.25V0h3.5v12.25h-3.5V7H45.5v5.25H42Zm15.75 0V10.5H56V1.75h1.75V0h8.75v1.75h1.75v8.75H66.5v1.75h-8.75Zm1.75-1.75h5.25V1.75H59.5v8.75ZM0 40.25V31.5h1.75v-1.75H3.5V28h5.25v1.75h1.75v1.75h1.75v8.75h-3.5v-3.5H3.5v3.5H0ZM3.5 35h5.25v-3.5H7v-1.75H5.25v1.75H3.5V35ZM14 40.25V28h10.5v1.75h1.75v3.5H24.5V35h1.75v3.5H24.5v1.75H14Zm3.5-7h5.25v-3.5H17.5v3.5Zm0 5.25h5.25V35H17.5v3.5Zm15.75 1.75v-10.5h-3.5V28h10.5v1.75h-3.5v10.5h-3.5Zm10.5 0V38.5H42v-8.75h1.75V28h8.75v1.75h1.75v8.75H52.5v1.75h-8.75Zm1.75-1.75h5.25v-8.75H45.5v8.75Z"/><path fill="#000" d="M3.5 68.25V66.5H1.75v-1.75H0V59.5h1.75v-1.75H3.5V56h7v1.75h1.75v1.75h-3.5v-1.75h-3.5v1.75H3.5v5.25h1.75v1.75h3.5v-1.75h3.5v1.75H10.5v1.75h-7Zm10.5 0V56h10.5v1.75h1.75v3.5H24.5V63h1.75v3.5H24.5v1.75H14Zm3.5-7h5.25v-3.5H17.5v3.5Zm0 5.25h5.25V63H17.5v3.5ZM28 68.25V56h12.25v1.75H31.5v3.5h7V63h-7v3.5h8.75v1.75H28Zm19.25 0v-10.5h-3.5V56h10.5v1.75h-3.5v10.5h-3.5Zm8.75 0v-3.5h1.75V63h1.75v-7h8.75v12.25h-3.5v-10.5h-3.5v8.75H59.5v1.75H56Zm15.75 0V66.5H70v-8.75h1.75V56h8.75v1.75h1.75v8.75H80.5v1.75h-8.75Zm1.75-1.75h5.25v-8.75H73.5v8.75Z" opacity=".6"/></svg>